<mxfile host="app.diagrams.net" modified="2024-03-21T02:13:24.810Z" agent="Mozilla/5.0 (Macintosh; Intel Mac OS X 10_15_7) AppleWebKit/537.36 (KHTML, like Gecko) Chrome/122.0.0.0 Safari/537.36" etag="q3SHjVZFqB3o0_l5qK3D" version="24.0.7" type="github">
  <diagram name="第 1 页" id="rTOxaklL-eS0H4QZtfOu">
    <mxGraphModel dx="883" dy="536" grid="1" gridSize="10" guides="1" tooltips="1" connect="1" arrows="1" fold="1" page="1" pageScale="1" pageWidth="827" pageHeight="1169" math="0" shadow="0">
      <root>
        <mxCell id="0" />
        <mxCell id="1" parent="0" />
        <mxCell id="xjSjHMgyJQxWd7MB65g_-6" value="" style="line;strokeWidth=2;html=1;" vertex="1" parent="1">
          <mxGeometry x="209" y="60" width="410" height="10" as="geometry" />
        </mxCell>
        <mxCell id="xjSjHMgyJQxWd7MB65g_-8" value="" style="line;strokeWidth=2;html=1;" vertex="1" parent="1">
          <mxGeometry x="209" y="90" width="410" height="10" as="geometry" />
        </mxCell>
        <mxCell id="xjSjHMgyJQxWd7MB65g_-9" value="" style="line;strokeWidth=2;html=1;" vertex="1" parent="1">
          <mxGeometry x="209" y="110" width="410" height="10" as="geometry" />
        </mxCell>
        <mxCell id="xjSjHMgyJQxWd7MB65g_-10" value="" style="line;strokeWidth=2;html=1;" vertex="1" parent="1">
          <mxGeometry x="210" y="130" width="410" height="10" as="geometry" />
        </mxCell>
        <mxCell id="xjSjHMgyJQxWd7MB65g_-11" value="" style="line;strokeWidth=2;html=1;" vertex="1" parent="1">
          <mxGeometry x="210" y="160" width="410" height="10" as="geometry" />
        </mxCell>
        <mxCell id="xjSjHMgyJQxWd7MB65g_-12" value="" style="line;strokeWidth=2;html=1;" vertex="1" parent="1">
          <mxGeometry x="210" y="180" width="410" height="10" as="geometry" />
        </mxCell>
      </root>
    </mxGraphModel>
  </diagram>
</mxfile>
